<svg width="217" height="32" viewBox="0 0 217 32" fill="none" xmlns="http://www.w3.org/2000/svg">
<path fill-rule="evenodd" clip-rule="evenodd" d="M8.64865 0C3.87213 0 0 3.92159 0 8.75912V23.2409C0 28.0784 3.87213 32 8.64865 32H23.3514C28.1279 32 32 28.0784 32 23.2409V8.75912C32 3.92159 28.1279 0 23.3514 0H8.64865ZM14.0857 23.4161C13.7441 23.4148 13.8404 23.0841 13.9753 22.6363L14.6011 20.5196C9.61324 22.6363 5.80322 15.4138 15.9999 8.52555C26.1966 15.4138 22.3868 22.6363 17.3989 20.5196L18.0247 22.6363C18.1596 23.0841 18.2559 23.4148 17.9143 23.4161H14.0857Z" fill="white"/>
<path fill-rule="evenodd" clip-rule="evenodd" d="M54.2898 8.59377C53.0227 7.8949 51.5114 7.54547 49.7557 7.54547H43.517V25H49.7045C51.4773 25 53 24.6506 54.2727 23.9517C55.5511 23.2529 56.5312 22.25 57.2131 20.9432C57.9006 19.6364 58.2443 18.0739 58.2443 16.2557C58.2443 14.4432 57.9006 12.8864 57.2131 11.5852C56.5312 10.2841 55.5568 9.28695 54.2898 8.59377ZM52.304 21.2585C51.5597 21.6449 50.642 21.8381 49.5511 21.8381H47.2074V10.7074H49.5597C50.6506 10.7074 51.5682 10.9006 52.3125 11.2869C53.0568 11.6733 53.6165 12.2756 53.9915 13.0938C54.3722 13.9119 54.5625 14.9659 54.5625 16.2557C54.5625 17.5568 54.3722 18.6193 53.9915 19.4432C53.6165 20.2614 53.054 20.8665 52.304 21.2585Z" fill="white"/>
<path d="M86.1456 15.6421L82.8217 15.8466C82.7649 15.5625 82.6428 15.3068 82.4553 15.0796C82.2678 14.8466 82.0206 14.6619 81.7138 14.5256C81.4126 14.3835 81.0518 14.3125 80.6314 14.3125C80.0689 14.3125 79.5945 14.4318 79.2081 14.6705C78.8217 14.9034 78.6285 15.2159 78.6285 15.608C78.6285 15.9205 78.7535 16.1847 79.0035 16.4006C79.2535 16.6165 79.6825 16.7898 80.2905 16.9205L82.6598 17.3977C83.9325 17.6591 84.8814 18.0796 85.5064 18.6591C86.1314 19.2387 86.4439 20 86.4439 20.9432C86.4439 21.8012 86.1911 22.554 85.6854 23.2017C85.1854 23.8494 84.4979 24.3551 83.6229 24.7188C82.7536 25.0767 81.7507 25.2557 80.6143 25.2557C78.8814 25.2557 77.5007 24.8949 76.4723 24.1733C75.4496 23.446 74.8501 22.4574 74.674 21.2074L78.245 21.0199C78.353 21.5483 78.6143 21.9517 79.0291 22.2301C79.4439 22.5029 79.9751 22.6392 80.6229 22.6392C81.2592 22.6392 81.7706 22.5171 82.157 22.2727C82.549 22.0227 82.7479 21.7017 82.7536 21.3097C82.7479 20.9801 82.6087 20.7102 82.3359 20.5C82.0632 20.2841 81.6428 20.1193 81.0746 20.0057L78.8075 19.554C77.5291 19.2983 76.5774 18.8551 75.9524 18.2244C75.3331 17.5938 75.0234 16.7898 75.0234 15.8125C75.0234 14.9716 75.2507 14.2472 75.7053 13.6392C76.1655 13.0313 76.8104 12.5625 77.6399 12.233C78.4751 11.9034 79.4524 11.7387 80.5717 11.7387C82.2251 11.7387 83.5263 12.0881 84.4751 12.7869C85.4297 13.4858 85.9865 14.4375 86.1456 15.6421Z" fill="white"/>
<path d="M89.1648 9.68467C89.5511 10.0426 90.0142 10.2216 90.554 10.2216C91.0938 10.2216 91.554 10.0426 91.9347 9.68467C92.321 9.32104 92.5142 8.88638 92.5142 8.3807C92.5142 7.8807 92.321 7.45172 91.9347 7.09377C91.554 6.73013 91.0938 6.54831 90.554 6.54831C90.0142 6.54831 89.5511 6.73013 89.1648 7.09377C88.7841 7.45172 88.5938 7.8807 88.5938 8.3807C88.5938 8.88638 88.7841 9.32104 89.1648 9.68467Z" fill="white"/>
<path fill-rule="evenodd" clip-rule="evenodd" d="M101.167 30.1818C99.9908 30.1818 98.9822 30.0199 98.1413 29.696C97.3061 29.3779 96.6413 28.9432 96.147 28.3921C95.6527 27.8409 95.3317 27.2216 95.184 26.5341L98.5419 26.0824C98.6442 26.3438 98.8061 26.5881 99.0277 26.8154C99.2493 27.0426 99.5419 27.2244 99.9055 27.3608C100.275 27.5029 100.724 27.5739 101.252 27.5739C102.042 27.5739 102.692 27.3807 103.204 26.9943C103.721 26.6137 103.979 25.9744 103.979 25.0767V22.6818H103.826C103.667 23.0455 103.428 23.3892 103.11 23.7131C102.792 24.0369 102.383 24.3012 101.883 24.5057C101.383 24.7102 100.786 24.8125 100.093 24.8125C99.1101 24.8125 98.2152 24.5852 97.4084 24.1307C96.6072 23.6705 95.968 22.9688 95.4908 22.0256C95.0192 21.0767 94.7834 19.8779 94.7834 18.429C94.7834 16.946 95.0249 15.7074 95.5078 14.7131C95.9908 13.7188 96.6328 12.9744 97.434 12.4801C98.2408 11.9858 99.1243 11.7387 100.085 11.7387C100.817 11.7387 101.431 11.8637 101.925 12.1137C102.42 12.358 102.817 12.6648 103.119 13.0341C103.425 13.3977 103.661 13.7557 103.826 14.108H103.962V11.9091H107.567V25.1279C107.567 26.2415 107.295 27.1733 106.749 27.9233C106.204 28.6733 105.448 29.2358 104.482 29.6108C103.522 29.9915 102.417 30.1818 101.167 30.1818ZM101.244 22.0852C101.829 22.0852 102.323 21.9404 102.727 21.6506C103.136 21.3551 103.448 20.9347 103.664 20.3892C103.886 19.8381 103.996 19.179 103.996 18.4119C103.996 17.6449 103.888 16.9801 103.673 16.4176C103.457 15.8494 103.144 15.4091 102.735 15.0966C102.326 14.7841 101.829 14.6279 101.244 14.6279C100.647 14.6279 100.144 14.7898 99.7351 15.1137C99.326 15.4318 99.0163 15.875 98.8061 16.4432C98.5959 17.0114 98.4908 17.6676 98.4908 18.4119C98.4908 19.1676 98.5959 19.821 98.8061 20.3722C99.022 20.9176 99.3317 21.3409 99.7351 21.6421C100.144 21.9375 100.647 22.0852 101.244 22.0852Z" fill="white"/>
<path d="M115.528 12.4119C114.846 12.8551 114.36 13.4574 114.07 14.2188H113.917V11.9091H110.457V25H114.087V17.4318C114.093 16.8693 114.198 16.3892 114.403 15.9915C114.613 15.5881 114.903 15.2813 115.272 15.071C115.647 14.8608 116.079 14.7557 116.567 14.7557C117.295 14.7557 117.866 14.983 118.281 15.4375C118.695 15.8864 118.9 16.5114 118.894 17.3125V25H122.525V16.6648C122.525 15.6477 122.337 14.7727 121.962 14.0398C121.587 13.3012 121.062 12.733 120.386 12.3352C119.71 11.9375 118.917 11.7387 118.008 11.7387C117.036 11.7387 116.21 11.9631 115.528 12.4119Z" fill="white"/>
<path d="M140.478 12.5654C140.41 11.8779 140.117 11.3438 139.6 10.9631C139.083 10.5824 138.381 10.3921 137.495 10.3921C136.893 10.3921 136.384 10.4773 135.969 10.6477C135.555 10.8125 135.236 11.0426 135.015 11.3381C134.799 11.6335 134.691 11.9688 134.691 12.3438C134.68 12.6563 134.745 12.929 134.887 13.1619C135.035 13.3949 135.237 13.5966 135.492 13.7671C135.748 13.9318 136.043 14.0767 136.379 14.2017C136.714 14.321 137.072 14.4233 137.452 14.5085L139.021 14.8835C139.782 15.054 140.481 15.2813 141.117 15.5654C141.754 15.8494 142.305 16.1989 142.771 16.6137C143.237 17.0284 143.597 17.5171 143.853 18.0796C144.114 18.6421 144.248 19.2869 144.254 20.0142C144.248 21.0824 143.975 22.0085 143.435 22.7926C142.901 23.571 142.129 24.1762 141.117 24.608C140.112 25.0341 138.898 25.2472 137.478 25.2472C136.069 25.2472 134.842 25.0313 133.796 24.5994C132.756 24.1676 131.944 23.5284 131.359 22.6818C130.779 21.8296 130.475 20.7756 130.447 19.5199H134.018C134.058 20.1051 134.225 20.5938 134.521 20.9858C134.822 21.3722 135.222 21.6648 135.722 21.8637C136.228 22.0568 136.799 22.1534 137.435 22.1534C138.06 22.1534 138.603 22.0625 139.063 21.8807C139.529 21.6989 139.89 21.446 140.146 21.1222C140.401 20.7983 140.529 20.4262 140.529 20.0057C140.529 19.6137 140.413 19.2841 140.18 19.0171C139.952 18.75 139.617 18.5227 139.174 18.3352C138.737 18.1477 138.2 17.9773 137.563 17.8239L135.663 17.3466C134.191 16.9887 133.029 16.429 132.177 15.6676C131.325 14.9063 130.901 13.8807 130.907 12.5909C130.901 11.5341 131.183 10.6108 131.751 9.82104C132.325 9.03127 133.112 8.41479 134.112 7.97161C135.112 7.52842 136.248 7.30683 137.521 7.30683C138.816 7.30683 139.947 7.52842 140.913 7.97161C141.884 8.41479 142.64 9.03127 143.18 9.82104C143.719 10.6108 143.998 11.5256 144.015 12.5654H140.478Z" fill="white"/>
<path d="M147.614 29.7983C148.017 29.8722 148.449 29.9091 148.909 29.9091C149.807 29.9091 150.574 29.7642 151.21 29.4744C151.847 29.1904 152.372 28.7841 152.787 28.2557C153.207 27.733 153.54 27.1193 153.784 26.4148L158.872 11.9091H155.028L152.293 21.5227H152.156L149.446 11.9091H145.628L150.324 25.375L150.111 25.929C149.952 26.3381 149.744 26.6279 149.489 26.7983C149.239 26.9688 148.94 27.0483 148.594 27.0369C148.253 27.0256 147.869 26.9546 147.443 26.8239L146.625 29.5341C146.886 29.6421 147.216 29.7301 147.614 29.7983Z" fill="white"/>
<path d="M171.622 15.6421L168.298 15.8466C168.241 15.5625 168.119 15.3068 167.932 15.0796C167.744 14.8466 167.497 14.6619 167.19 14.5256C166.889 14.3835 166.528 14.3125 166.108 14.3125C165.545 14.3125 165.071 14.4318 164.685 14.6705C164.298 14.9034 164.105 15.2159 164.105 15.608C164.105 15.9205 164.23 16.1847 164.48 16.4006C164.73 16.6165 165.159 16.7898 165.767 16.9205L168.136 17.3977C169.409 17.6591 170.358 18.0796 170.983 18.6591C171.608 19.2387 171.92 20 171.92 20.9432C171.92 21.8012 171.668 22.554 171.162 23.2017C170.662 23.8494 169.974 24.3551 169.099 24.7188C168.23 25.0767 167.227 25.2557 166.091 25.2557C164.358 25.2557 162.977 24.8949 161.949 24.1733C160.926 23.446 160.327 22.4574 160.151 21.2074L163.722 21.0199C163.83 21.5483 164.091 21.9517 164.506 22.2301C164.92 22.5029 165.452 22.6392 166.099 22.6392C166.736 22.6392 167.247 22.5171 167.634 22.2727C168.026 22.0227 168.224 21.7017 168.23 21.3097C168.224 20.9801 168.085 20.7102 167.812 20.5C167.54 20.2841 167.119 20.1193 166.551 20.0057L164.284 19.554C163.006 19.2983 162.054 18.8551 161.429 18.2244C160.81 17.5938 160.5 16.7898 160.5 15.8125C160.5 14.9716 160.727 14.2472 161.182 13.6392C161.642 13.0313 162.287 12.5625 163.116 12.233C163.952 11.9034 164.929 11.7387 166.048 11.7387C167.702 11.7387 169.003 12.0881 169.952 12.7869C170.906 13.4858 171.463 14.4375 171.622 15.6421Z" fill="white"/>
<path d="M202.715 12.4034C202.079 12.8466 201.624 13.4517 201.352 14.2188H201.198V11.9091H197.738V25H201.369V17.1421C201.369 16.6591 201.462 16.2387 201.65 15.8807C201.837 15.5171 202.09 15.2358 202.408 15.0369C202.732 14.8324 203.096 14.7301 203.499 14.7301C204.096 14.7301 204.576 14.9205 204.94 15.3012C205.309 15.6818 205.494 16.1932 205.494 16.8352V25H209.013V17.0057C209.013 16.3239 209.198 15.7756 209.567 15.3608C209.937 14.9404 210.451 14.7301 211.11 14.7301C211.69 14.7301 212.173 14.9119 212.559 15.2756C212.945 15.6392 213.138 16.1847 213.138 16.9119V25H216.761V16.196C216.761 14.7756 216.377 13.679 215.61 12.9063C214.849 12.1279 213.857 11.7387 212.636 11.7387C211.675 11.7387 210.843 11.9659 210.138 12.4205C209.44 12.8693 208.957 13.4688 208.69 14.2188H208.553C208.343 13.4574 207.923 12.8551 207.292 12.4119C206.661 11.9631 205.897 11.7387 204.999 11.7387C204.113 11.7387 203.352 11.9602 202.715 12.4034Z" fill="white"/>
<path fill-rule="evenodd" clip-rule="evenodd" d="M63.3984 24.4375C64.37 24.983 65.5291 25.2557 66.8757 25.2557C67.9553 25.2557 68.907 25.0909 69.7308 24.7614C70.5604 24.4262 71.2365 23.9602 71.7592 23.3637C72.2876 22.7614 72.6371 22.0568 72.8075 21.25L69.4496 21.0284C69.3246 21.358 69.1428 21.6364 68.9041 21.8637C68.6655 22.0909 68.3786 22.2614 68.0433 22.375C67.7081 22.4887 67.3388 22.5455 66.9354 22.5455C66.3274 22.5455 65.8018 22.4176 65.3587 22.1619C64.9155 21.9063 64.5717 21.5426 64.3274 21.071C64.0888 20.5994 63.9695 20.0398 63.9695 19.3921V19.3835H72.8842V18.3864C72.8842 17.2727 72.728 16.3012 72.4155 15.4716C72.103 14.6364 71.6655 13.9432 71.103 13.3921C70.5462 12.8409 69.8928 12.429 69.1428 12.1563C68.3984 11.8779 67.5945 11.7387 66.7308 11.7387C65.4467 11.7387 64.3274 12.0227 63.3729 12.5909C62.424 13.1591 61.6882 13.9517 61.1655 14.9688C60.6428 15.9858 60.3814 17.1676 60.3814 18.5142C60.3814 19.8949 60.6428 21.0909 61.1655 22.1023C61.6882 23.108 62.4325 23.8864 63.3984 24.4375ZM69.1257 15.7443C69.353 16.1477 69.4666 16.6108 69.4666 17.1335H63.9729C63.9948 16.6635 64.1158 16.2345 64.3359 15.8466C64.5746 15.4205 64.9041 15.0824 65.3246 14.8324C65.7507 14.5767 66.2393 14.4489 66.7905 14.4489C67.3189 14.4489 67.782 14.5654 68.1797 14.7983C68.5831 15.0256 68.8984 15.3409 69.1257 15.7443Z" fill="white"/>
<path d="M178.86 21.7614C178.758 21.5739 178.707 21.3125 178.707 20.9773V14.6364H181.17V11.9091H178.707V8.77274H175.076V11.9091H173.286V14.6364H175.076V21.4546C175.07 22.3125 175.249 23.0227 175.613 23.5852C175.977 24.1477 176.485 24.5625 177.138 24.8296C177.798 25.0966 178.565 25.2131 179.44 25.179C179.911 25.1619 180.312 25.1137 180.641 25.0341C180.971 24.9602 181.227 24.8949 181.408 24.8381L180.837 22.1364C180.746 22.1534 180.616 22.179 180.445 22.2131C180.275 22.2415 180.104 22.2557 179.934 22.2557C179.69 22.2557 179.474 22.2188 179.286 22.1449C179.104 22.071 178.962 21.9432 178.86 21.7614Z" fill="white"/>
<path fill-rule="evenodd" clip-rule="evenodd" d="M185.883 24.4375C186.854 24.983 188.014 25.2557 189.36 25.2557C190.44 25.2557 191.391 25.0909 192.215 24.7614C193.045 24.4262 193.721 23.9602 194.244 23.3637C194.772 22.7614 195.121 22.0568 195.292 21.25L191.934 21.0284C191.809 21.358 191.627 21.6364 191.388 21.8637C191.15 22.0909 190.863 22.2614 190.528 22.375C190.192 22.4887 189.823 22.5455 189.42 22.5455C188.812 22.5455 188.286 22.4176 187.843 22.1619C187.4 21.9063 187.056 21.5426 186.812 21.071C186.573 20.5994 186.454 20.0398 186.454 19.3921V19.3835H195.369V18.3864C195.369 17.2727 195.212 16.3012 194.9 15.4716C194.587 14.6364 194.15 13.9432 193.587 13.3921C193.031 12.8409 192.377 12.429 191.627 12.1563C190.883 11.8779 190.079 11.7387 189.215 11.7387C187.931 11.7387 186.812 12.0227 185.857 12.5909C184.908 13.1591 184.173 13.9517 183.65 14.9688C183.127 15.9858 182.866 17.1676 182.866 18.5142C182.866 19.8949 183.127 21.0909 183.65 22.1023C184.173 23.108 184.917 23.8864 185.883 24.4375ZM191.61 15.7443C191.837 16.1477 191.951 16.6108 191.951 17.1335H186.457C186.479 16.6635 186.6 16.2345 186.82 15.8466C187.059 15.4205 187.388 15.0824 187.809 14.8324C188.235 14.5767 188.724 14.4489 189.275 14.4489C189.803 14.4489 190.266 14.5654 190.664 14.7983C191.067 15.0256 191.383 15.3409 191.61 15.7443Z" fill="white"/>
<path d="M88.7301 11.9091V25H92.3608V11.9091H88.7301Z" fill="white"/>
</svg>
