<svg width="32" height="32" viewBox="0 0 32 32" fill="none" xmlns="http://www.w3.org/2000/svg">
<path fill-rule="evenodd" clip-rule="evenodd" d="M8.64865 0C3.87213 0 0 3.92159 0 8.75912V23.2409C0 28.0784 3.87213 32 8.64865 32H23.3514C28.1279 32 32 28.0784 32 23.2409V8.75912C32 3.92159 28.1279 0 23.3514 0H8.64865ZM14.0857 23.4161C13.7441 23.4148 13.8404 23.0841 13.9753 22.6363L14.6011 20.5196C9.61324 22.6363 5.80322 15.4138 15.9999 8.52555C26.1966 15.4138 22.3868 22.6363 17.3989 20.5196L18.0247 22.6363C18.1596 23.0841 18.2559 23.4148 17.9143 23.4161H14.0857Z" fill="url(#paint0_linear_3708_664)"/>
<defs>
<linearGradient id="paint0_linear_3708_664" x1="0" y1="0" x2="32" y2="32" gradientUnits="userSpaceOnUse">
<stop stop-color="#F59E0B"/>
<stop offset="0.5" stop-color="#F97316"/>
<stop offset="1" stop-color="#EF4444"/>
</linearGradient>
</defs>
</svg>
