<svg width="306" height="42" viewBox="0 0 306 42" fill="none" xmlns="http://www.w3.org/2000/svg">
<path d="M5.73223 5.73223C6.20107 5.26339 6.83696 5 7.5 5H12.5C13.8807 5 15 3.88071 15 2.5C15 1.11929 13.8807 0 12.5 0H7.5C5.51088 0 3.60322 0.790176 2.1967 2.1967C0.790176 3.60322 0 5.51088 0 7.5V12.5C0 13.8807 1.11929 15 2.5 15C3.88071 15 5 13.8807 5 12.5V7.5C5 6.83696 5.26339 6.20107 5.73223 5.73223Z" fill="black"/>
<path d="M29.5 0C28.1193 0 27 1.11929 27 2.5C27 3.88071 28.1193 5 29.5 5H34.5C35.163 5 35.7989 5.26339 36.2678 5.73223C36.7366 6.20107 37 6.83696 37 7.5V12.5C37 13.8807 38.1193 15 39.5 15C40.8807 15 42 13.8807 42 12.5V7.5C42 5.51088 41.2098 3.60322 39.8033 2.1967C38.3968 0.790176 36.4891 0 34.5 0H29.5Z" fill="black"/>
<path d="M39.5 27C40.8807 27 42 28.1193 42 29.5V34.5C42 36.4891 41.2098 38.3968 39.8033 39.8033C38.3968 41.2098 36.4891 42 34.5 42H29.5C28.1193 42 27 40.8807 27 39.5C27 38.1193 28.1193 37 29.5 37H34.5C35.163 37 35.7989 36.7366 36.2678 36.2678C36.7366 35.7989 37 35.163 37 34.5V29.5C37 28.1193 38.1193 27 39.5 27Z" fill="black"/>
<path d="M5 29.5C5 28.1193 3.88071 27 2.5 27C1.11929 27 0 28.1193 0 29.5V34.5C0 36.4891 0.790176 38.3968 2.1967 39.8033C3.60322 41.2098 5.51088 42 7.5 42H12.5C13.8807 42 15 40.8807 15 39.5C15 38.1193 13.8807 37 12.5 37H7.5C6.83696 37 6.20107 36.7366 5.73223 36.2678C5.26339 35.7989 5 35.163 5 34.5V29.5Z" fill="black"/>
<path fill-rule="evenodd" clip-rule="evenodd" d="M74.8111 34L69.8518 24.7188H65.8111V34H60.2756V7.81818H70.6051C72.5824 7.81818 74.2699 8.17188 75.6676 8.87926C77.0739 9.57812 78.1435 10.571 78.8764 11.858C79.6179 13.1364 79.9886 14.6406 79.9886 16.3707C79.9886 18.1094 79.6136 19.6051 78.8636 20.858C78.1136 22.1023 77.027 23.0568 75.6037 23.7216C75.5257 23.7583 75.4467 23.7939 75.3669 23.8286L80.9219 34H74.8111ZM72.2031 19.8352C71.5043 20.125 70.6264 20.2699 69.5696 20.2699H65.8111V12.3438H69.544C70.6094 12.3438 71.4915 12.5014 72.1903 12.8168C72.8977 13.1236 73.4219 13.5753 73.7628 14.1719C74.1122 14.7685 74.2869 15.5014 74.2869 16.3707C74.2869 17.2315 74.1122 17.9517 73.7628 18.5312C73.4219 19.1108 72.902 19.5455 72.2031 19.8352Z" fill="black"/>
<path fill-rule="evenodd" clip-rule="evenodd" d="M86.3148 33.1562C87.7722 33.9744 89.5109 34.3835 91.5308 34.3835C93.1501 34.3835 94.5776 34.1364 95.8134 33.642C97.0577 33.1392 98.072 32.4403 98.856 31.5455C99.6487 30.642 100.173 29.5852 100.428 28.375L95.3915 28.0426C95.204 28.5369 94.9313 28.9545 94.5734 29.2955C94.2154 29.6364 93.785 29.892 93.2822 30.0625C92.7793 30.233 92.2254 30.3182 91.6202 30.3182C90.7083 30.3182 89.92 30.1264 89.2552 29.7429C88.5904 29.3594 88.0748 28.8139 87.7083 28.1065C87.3504 27.3991 87.1714 26.5597 87.1714 25.5881V25.5753H100.544V24.0795C100.544 22.4091 100.309 20.9517 99.8404 19.7074C99.3717 18.4545 98.7154 17.4148 97.8717 16.5881C97.0364 15.7614 96.0563 15.1435 94.9313 14.7344C93.8148 14.3168 92.6089 14.108 91.3134 14.108C89.3873 14.108 87.7083 14.5341 86.2765 15.3864C84.8532 16.2386 83.7495 17.4276 82.9654 18.9531C82.1813 20.4787 81.7893 22.2514 81.7893 24.2713C81.7893 26.3423 82.1813 28.1364 82.9654 29.6534C83.7495 31.1619 84.866 32.3295 86.3148 33.1562ZM87.1765 22.2003C87.2093 21.4952 87.3909 20.8517 87.7211 20.2699C88.079 19.6307 88.5734 19.1236 89.204 18.7486C89.8433 18.3651 90.5762 18.1733 91.4029 18.1733C92.1955 18.1733 92.8901 18.348 93.4867 18.6974C94.0918 19.0384 94.5648 19.5114 94.9058 20.1165C95.2467 20.7216 95.4171 21.4162 95.4171 22.2003H87.1765Z" fill="black"/>
<path fill-rule="evenodd" clip-rule="evenodd" d="M108.797 34.3707C107.544 34.3707 106.428 34.1534 105.448 33.7188C104.467 33.2756 103.692 32.6236 103.121 31.7628C102.558 30.8935 102.277 29.8111 102.277 28.5156C102.277 27.4247 102.477 26.5085 102.878 25.767C103.278 25.0256 103.824 24.429 104.514 23.9773C105.205 23.5256 105.989 23.1847 106.867 22.9545C107.753 22.7244 108.682 22.5625 109.653 22.4688C110.796 22.3494 111.716 22.2386 112.415 22.1364C113.114 22.0256 113.621 21.8636 113.936 21.6506C114.251 21.4375 114.409 21.1222 114.409 20.7045V20.6278C114.409 19.8182 114.153 19.1918 113.642 18.7486C113.139 18.3054 112.423 18.0838 111.494 18.0838C110.514 18.0838 109.734 18.3011 109.155 18.7358C108.575 19.1619 108.192 19.6989 108.004 20.3466L102.967 19.9375C103.223 18.7443 103.726 17.7131 104.476 16.8438C105.226 15.9659 106.193 15.2926 107.378 14.8239C108.571 14.3466 109.952 14.108 111.52 14.108C112.611 14.108 113.655 14.2358 114.652 14.4915C115.658 14.7472 116.548 15.1435 117.324 15.6804C118.108 16.2173 118.726 16.9077 119.178 17.7514C119.629 18.5866 119.855 19.5881 119.855 20.7557V34H114.69V31.277H114.537C114.222 31.8906 113.8 32.4318 113.271 32.9006C112.743 33.3608 112.108 33.723 111.367 33.9872C110.625 34.2429 109.769 34.3707 108.797 34.3707ZM110.357 30.6122C111.158 30.6122 111.865 30.4545 112.479 30.1392C113.092 29.8153 113.574 29.3807 113.923 28.8352C114.273 28.2898 114.448 27.6719 114.448 26.9815V24.8977C114.277 25.0085 114.043 25.1108 113.744 25.2045C113.455 25.2898 113.126 25.3707 112.76 25.4474C112.394 25.5156 112.027 25.5795 111.661 25.6392C111.294 25.6903 110.962 25.7372 110.663 25.7798C110.024 25.8736 109.466 26.0227 108.989 26.2273C108.511 26.4318 108.141 26.7088 107.876 27.0582C107.612 27.3991 107.48 27.8253 107.48 28.3366C107.48 29.0781 107.749 29.6449 108.286 30.0369C108.831 30.4205 109.521 30.6122 110.357 30.6122Z" fill="black"/>
<path d="M126.862 33.1051C128.311 33.9574 130.041 34.3835 132.052 34.3835C133.8 34.3835 135.312 34.0639 136.591 33.4247C137.869 32.7855 138.871 31.8991 139.595 30.7656C140.328 29.6236 140.737 28.3026 140.822 26.8026H135.683C135.581 27.4929 135.364 28.0852 135.031 28.5795C134.707 29.0653 134.294 29.4361 133.791 29.6918C133.297 29.9474 132.739 30.0753 132.116 30.0753C131.273 30.0753 130.535 29.8452 129.905 29.3849C129.274 28.9247 128.784 28.2557 128.435 27.3778C128.094 26.5 127.923 25.4347 127.923 24.1818C127.923 22.946 128.098 21.8935 128.447 21.0241C128.797 20.1548 129.283 19.4943 129.905 19.0426C130.535 18.5824 131.273 18.3523 132.116 18.3523C133.114 18.3523 133.919 18.6548 134.533 19.2599C135.155 19.8565 135.538 20.6449 135.683 21.625H140.822C140.746 20.108 140.332 18.7869 139.582 17.6619C138.832 16.5369 137.814 15.6634 136.527 15.0412C135.24 14.419 133.74 14.108 132.027 14.108C130.041 14.108 128.328 14.5384 126.888 15.3991C125.447 16.2514 124.335 17.4403 123.551 18.9659C122.775 20.483 122.388 22.2472 122.388 24.2585C122.388 26.2443 122.771 28 123.538 29.5256C124.314 31.0511 125.422 32.2443 126.862 33.1051Z" fill="black"/>
<path d="M145.519 31.8778C144.973 31.0341 144.705 29.9688 144.713 28.6818V18.4545H142.029V14.3636H144.713V9.65909H150.159V14.3636H153.854V18.4545H150.159V27.9659C150.159 28.4687 150.236 28.8608 150.389 29.142C150.543 29.4148 150.756 29.6065 151.029 29.7173C151.31 29.8281 151.634 29.8835 152 29.8835C152.256 29.8835 152.512 29.8622 152.767 29.8196C153.023 29.7685 153.219 29.7301 153.355 29.7045L154.212 33.7571C153.939 33.8423 153.556 33.9403 153.061 34.0511C152.567 34.1705 151.966 34.2429 151.259 34.2685C149.946 34.3196 148.796 34.1449 147.807 33.7443C146.827 33.3438 146.064 32.7216 145.519 31.8778Z" fill="black"/>
<path d="M189.628 14.3636L193.233 21.2287L196.927 14.3636H202.514L196.825 24.1818L202.667 34H197.106L193.233 27.2116L189.423 34H183.798L189.628 24.1818L184.003 14.3636H189.628Z" fill="black"/>
<path fill-rule="evenodd" clip-rule="evenodd" d="M206.993 33.7188C207.973 34.1534 209.089 34.3707 210.342 34.3707C211.314 34.3707 212.17 34.2429 212.912 33.9872C213.653 33.723 214.288 33.3608 214.817 32.9006C215.345 32.4318 215.767 31.8906 216.082 31.277H216.236V34H221.4V20.7557C221.4 19.5881 221.175 18.5866 220.723 17.7514C220.271 16.9077 219.653 16.2173 218.869 15.6804C218.094 15.1435 217.203 14.7472 216.197 14.4915C215.2 14.2358 214.156 14.108 213.065 14.108C211.497 14.108 210.116 14.3466 208.923 14.8239C207.739 15.2926 206.771 15.9659 206.021 16.8438C205.271 17.7131 204.768 18.7443 204.513 19.9375L209.55 20.3466C209.737 19.6989 210.121 19.1619 210.7 18.7358C211.28 18.3011 212.06 18.0838 213.04 18.0838C213.969 18.0838 214.685 18.3054 215.187 18.7486C215.699 19.1918 215.954 19.8182 215.954 20.6278V20.7045C215.954 21.1222 215.797 21.4375 215.481 21.6506C215.166 21.8636 214.659 22.0256 213.96 22.1364C213.261 22.2386 212.341 22.3494 211.199 22.4688C210.227 22.5625 209.298 22.7244 208.412 22.9545C207.534 23.1847 206.75 23.5256 206.06 23.9773C205.369 24.429 204.824 25.0256 204.423 25.767C204.023 26.5085 203.822 27.4247 203.822 28.5156C203.822 29.8111 204.104 30.8935 204.666 31.7628C205.237 32.6236 206.013 33.2756 206.993 33.7188ZM214.024 30.1392C213.41 30.4545 212.703 30.6122 211.902 30.6122C211.067 30.6122 210.376 30.4205 209.831 30.0369C209.294 29.6449 209.025 29.0781 209.025 28.3366C209.025 27.8253 209.158 27.3991 209.422 27.0582C209.686 26.7088 210.057 26.4318 210.534 26.2273C211.011 26.0227 211.57 25.8736 212.209 25.7798C212.507 25.7372 212.839 25.6903 213.206 25.6392C213.572 25.5795 213.939 25.5156 214.305 25.4474C214.672 25.3707 215 25.2898 215.29 25.2045C215.588 25.1108 215.822 25.0085 215.993 24.8977V26.9815C215.993 27.6719 215.818 28.2898 215.469 28.8352C215.119 29.3807 214.638 29.8153 214.024 30.1392Z" fill="black"/>
<path d="M230.594 20.321C230.312 20.858 230.172 21.4886 230.172 22.2131V34H224.726V14.3636H229.916V17.8281H230.146C230.555 16.6776 231.237 15.7699 232.192 15.1051C233.146 14.4403 234.288 14.108 235.618 14.108C236.964 14.108 238.111 14.4446 239.057 15.1179C240.003 15.7827 240.633 16.6861 240.949 17.8281H241.153C241.554 16.7031 242.278 15.804 243.326 15.1307C244.383 14.4489 245.632 14.108 247.072 14.108C248.905 14.108 250.392 14.6918 251.534 15.8594C252.684 17.0185 253.26 18.6634 253.26 20.794V34H247.826V21.8679C247.826 20.777 247.537 19.9588 246.957 19.4134C246.378 18.8679 245.653 18.5952 244.784 18.5952C243.795 18.5952 243.024 18.9105 242.47 19.5412C241.916 20.1634 241.639 20.9858 241.639 22.0085V34H236.359V21.7528C236.359 20.7898 236.082 20.0227 235.528 19.4517C234.983 18.8807 234.263 18.5952 233.368 18.5952C232.763 18.5952 232.217 18.7486 231.731 19.0554C231.254 19.3537 230.875 19.7756 230.594 20.321Z" fill="black"/>
<path fill-rule="evenodd" clip-rule="evenodd" d="M263.309 16.0511C262.858 16.5966 262.512 17.1335 262.274 17.6619H262.031V14.3636H256.662V41.3636H262.108V30.8551H262.274C262.521 31.4006 262.879 31.9418 263.348 32.4787C263.816 33.0071 264.417 33.446 265.15 33.7955C265.892 34.1449 266.791 34.3196 267.848 34.3196C269.339 34.3196 270.686 33.9361 271.887 33.169C273.098 32.3935 274.052 31.2557 274.751 29.7557C275.458 28.2472 275.812 26.3977 275.812 24.2074C275.812 21.9574 275.45 20.0866 274.725 18.5952C274.001 17.0952 273.034 15.9744 271.824 15.233C270.613 14.483 269.292 14.108 267.86 14.108C266.761 14.108 265.841 14.2955 265.099 14.6705C264.366 15.0369 263.77 15.4972 263.309 16.0511ZM262.478 27.2372C262.154 26.3679 261.993 25.3494 261.993 24.1818C261.993 23.0142 262.154 22 262.478 21.1392C262.802 20.2784 263.267 19.6136 263.872 19.1449C264.485 18.6761 265.235 18.4418 266.122 18.4418C267.017 18.4418 267.771 18.6847 268.385 19.1705C268.998 19.6562 269.463 20.3295 269.778 21.1903C270.093 22.0511 270.251 23.0483 270.251 24.1818C270.251 25.3239 270.089 26.3338 269.765 27.2116C269.45 28.081 268.985 28.7628 268.372 29.2571C267.758 29.7429 267.008 29.9858 266.122 29.9858C265.244 29.9858 264.498 29.7472 263.885 29.2699C263.271 28.7841 262.802 28.1065 262.478 27.2372Z" fill="black"/>
<path fill-rule="evenodd" clip-rule="evenodd" d="M291.184 33.1562C292.642 33.9744 294.38 34.3835 296.4 34.3835C298.02 34.3835 299.447 34.1364 300.683 33.642C301.927 33.1392 302.941 32.4403 303.726 31.5455C304.518 30.642 305.042 29.5852 305.298 28.375L300.261 28.0426C300.074 28.5369 299.801 28.9545 299.443 29.2955C299.085 29.6364 298.655 29.892 298.152 30.0625C297.649 30.233 297.095 30.3182 296.49 30.3182C295.578 30.3182 294.789 30.1264 294.125 29.7429C293.46 29.3594 292.944 28.8139 292.578 28.1065C292.22 27.3991 292.041 26.5597 292.041 25.5881V25.5753H305.413V24.0795C305.413 22.4091 305.179 20.9517 304.71 19.7074C304.241 18.4545 303.585 17.4148 302.741 16.5881C301.906 15.7614 300.926 15.1435 299.801 14.7344C298.684 14.3168 297.478 14.108 296.183 14.108C294.257 14.108 292.578 14.5341 291.146 15.3864C289.723 16.2386 288.619 17.4276 287.835 18.9531C287.051 20.4787 286.659 22.2514 286.659 24.2713C286.659 26.3423 287.051 28.1364 287.835 29.6534C288.619 31.1619 289.736 32.3295 291.184 33.1562ZM292.046 22.2003C292.079 21.4952 292.26 20.8517 292.591 20.2699C292.949 19.6307 293.443 19.1236 294.074 18.7486C294.713 18.3651 295.446 18.1733 296.272 18.1733C297.065 18.1733 297.76 18.348 298.356 18.6974C298.961 19.0384 299.434 19.5114 299.775 20.1165C300.116 20.7216 300.287 21.4162 300.287 22.2003H292.046Z" fill="black"/>
<path d="M164.036 7.81818V34H181.729V29.4361H169.571V23.1847H180.77V18.6207H169.571V12.3821H181.678V7.81818H164.036Z" fill="black"/>
<path d="M283.989 7.81818V34H278.543V7.81818H283.989Z" fill="black"/>
</svg>
